<?xml version="1.0" encoding="UTF-8" standalone="no"?>
<!-- Generated by IcoMoon.io -->

<svg
   xmlns:dc="http://purl.org/dc/elements/1.1/"
   xmlns:cc="http://creativecommons.org/ns#"
   xmlns:rdf="http://www.w3.org/1999/02/22-rdf-syntax-ns#"
   xmlns:svg="http://www.w3.org/2000/svg"
   xmlns="http://www.w3.org/2000/svg"
   xmlns:sodipodi="http://sodipodi.sourceforge.net/DTD/sodipodi-0.dtd"
   xmlns:inkscape="http://www.inkscape.org/namespaces/inkscape"
   version="1.1"
   width="20"
   height="20"
   viewBox="0 0 20 20"
   id="svg6923"
   inkscape:version="0.91 r13725"
   sodipodi:docname="instagram.svg">
  <metadata
     id="metadata6936">
    <rdf:RDF>
      <cc:Work
         rdf:about="">
        <dc:format>image/svg+xml</dc:format>
        <dc:type
           rdf:resource="http://purl.org/dc/dcmitype/StillImage" />
        <dc:title></dc:title>
      </cc:Work>
    </rdf:RDF>
  </metadata>
  <defs
     id="defs6934" />
  <sodipodi:namedview
     pagecolor="#ffffff"
     bordercolor="#666666"
     borderopacity="1"
     objecttolerance="10"
     gridtolerance="10"
     guidetolerance="10"
     inkscape:pageopacity="0"
     inkscape:pageshadow="2"
     inkscape:window-width="1366"
     inkscape:window-height="706"
     id="namedview6932"
     showgrid="false"
     inkscape:zoom="14.75"
     inkscape:cx="15.100665"
     inkscape:cy="12.876963"
     inkscape:window-x="-8"
     inkscape:window-y="-8"
     inkscape:window-maximized="1"
     inkscape:current-layer="svg6923" />
  <path
     style="opacity:1;fill:#000000;fill-opacity:1;fill-rule:nonzero;stroke:none;stroke-width:0.50800002;stroke-linejoin:miter;stroke-miterlimit:4;stroke-dasharray:none;stroke-opacity:1"
     d="M 3 0 C 1.338 0 0 1.338 0 3 L 0 17 C 0 18.662 1.338 20 3 20 L 17 20 C 18.662 20 20 18.662 20 17 L 20 3 C 20 1.338 18.662 0 17 0 L 3 0 z M 10.003906 2 C 12.176206 2 12.44827 2.0101413 13.304688 2.0507812 C 14.154853 2.0882932 14.736619 2.2249549 15.246094 2.421875 C 15.771197 2.6250351 16.218273 2.8999098 16.662109 3.34375 C 17.109072 3.7875822 17.381211 4.2342647 17.578125 4.765625 C 17.775038 5.2719692 17.911715 5.8568627 17.949219 6.7070312 C 17.986709 7.5603276 17.996094 7.8316101 17.996094 10.003906 C 17.996094 12.176203 17.986719 12.449437 17.949219 13.302734 C 17.911712 14.152902 17.775038 14.734668 17.578125 15.244141 C 17.37496 15.769245 17.100087 16.214371 16.65625 16.658203 C 16.212414 17.102044 15.765337 17.378863 15.240234 17.582031 C 14.733885 17.778943 14.148994 17.915605 13.298828 17.953125 C 12.445536 17.990605 12.174254 18 10.001953 18 C 7.8296529 18 7.5564171 17.990645 6.703125 17.953125 C 5.8529585 17.915621 5.2731466 17.778943 4.7636719 17.582031 C 4.238569 17.378863 3.7914931 17.102044 3.3476562 16.658203 C 2.9006939 16.214371 2.6281654 15.768458 2.421875 15.240234 C 2.2249615 14.733881 2.0882883 14.148996 2.0507812 13.298828 C 2.0132775 12.445539 2.0039062 12.174258 2.0039062 10.001953 C 2.0039062 7.8296566 2.0132743 7.5575963 2.0507812 6.7011719 C 2.0882886 5.8510034 2.2249615 5.2692458 2.421875 4.7597656 C 2.6281654 4.2346613 2.9006937 3.7875822 3.3476562 3.34375 C 3.7914931 2.8967817 4.2373965 2.6242566 4.765625 2.4179688 C 5.2719741 2.2210564 5.8568649 2.084395 6.7070312 2.046875 C 7.5603233 2.009355 7.8316059 2 10.003906 2 z M 10.003906 3.4414062 C 7.8659877 3.4414062 7.6142271 3.4507614 6.7734375 3.4882812 C 5.9951601 3.5226655 5.5684144 3.6542718 5.2871094 3.7636719 C 4.9151615 3.910568 4.6504457 4.081977 4.3691406 4.3632812 C 4.0909611 4.6414655 3.9152626 4.9093059 3.7714844 5.28125 C 3.6620879 5.5625542 3.5304753 5.9842246 3.4960938 6.765625 C 3.4585896 7.6064174 3.4492188 7.8632542 3.4492188 9.9980469 C 3.4492188 12.13284 3.4585865 12.386548 3.4960938 13.230469 C 3.5304753 14.008741 3.6620879 14.43354 3.7714844 14.714844 C 3.9183882 15.086789 4.0917418 15.353462 4.3730469 15.634766 C 4.6512264 15.91295 4.9190677 16.086693 5.2910156 16.230469 C 5.5723206 16.339869 5.9939876 16.471459 6.7753906 16.505859 C 7.6161802 16.543339 7.8730197 16.552734 10.007812 16.552734 C 12.142606 16.552734 12.396319 16.543379 13.240234 16.505859 C 14.018511 16.471475 14.443304 16.339869 14.724609 16.230469 C 15.096557 16.083565 15.361273 15.912171 15.642578 15.630859 C 15.920757 15.352683 16.096456 15.082888 16.240234 14.710938 C 16.34963 14.429633 16.481245 14.007964 16.515625 13.226562 C 16.553115 12.385772 16.5625 12.130887 16.5625 9.9960938 C 16.5625 7.8613009 16.553125 7.6075843 16.515625 6.7636719 C 16.481243 5.9853915 16.34963 5.5606011 16.240234 5.2792969 C 16.09333 4.9073448 15.92193 4.6406871 15.640625 4.359375 C 15.362446 4.0811988 15.092651 3.907448 14.720703 3.7636719 C 14.439398 3.6542718 14.01773 3.5226814 13.236328 3.4882812 C 12.395538 3.4507614 12.141824 3.4414063 10.003906 3.4414062 z M 14.277344 4.7695312 C 14.807292 4.7695312 15.236328 5.1985633 15.236328 5.7285156 C 15.236328 6.2584598 14.807292 6.6875 14.277344 6.6875 C 13.747397 6.6875 13.318359 6.2584598 13.318359 5.7285156 C 13.318359 5.1985633 13.747397 4.7695313 14.277344 4.7695312 z M 10.003906 5.890625 C 12.2731 5.890625 14.115234 7.7327604 14.115234 10.001953 C 14.115234 12.271154 12.2731 14.111328 10.003906 14.111328 C 7.7347116 14.111328 5.8945312 12.271154 5.8945312 10.001953 C 5.8945312 7.7327604 7.7347116 5.890625 10.003906 5.890625 z M 10.003906 7.3359375 C 8.5317426 7.3359375 7.3378906 8.5297925 7.3378906 10.001953 C 7.3378906 11.474122 8.5317426 12.667969 10.003906 12.667969 C 11.476069 12.667969 12.669922 11.474122 12.669922 10.001953 C 12.669922 8.5297925 11.476069 7.3359375 10.003906 7.3359375 z "
     id="rect7480" />
  <g
     id="icomoon-ignore"
     transform="translate(0,-492)" />
</svg>
