<?xml version="1.0" encoding="UTF-8" standalone="no"?>
<!-- Generated by IcoMoon.io -->

<svg
   xmlns:dc="http://purl.org/dc/elements/1.1/"
   xmlns:cc="http://creativecommons.org/ns#"
   xmlns:rdf="http://www.w3.org/1999/02/22-rdf-syntax-ns#"
   xmlns:svg="http://www.w3.org/2000/svg"
   xmlns="http://www.w3.org/2000/svg"
   xmlns:sodipodi="http://sodipodi.sourceforge.net/DTD/sodipodi-0.dtd"
   xmlns:inkscape="http://www.inkscape.org/namespaces/inkscape"
   version="1.1"
   width="20"
   height="20"
   viewBox="0 0 20 20"
   id="svg5261"
   inkscape:version="0.91 r13725"
   sodipodi:docname="vk.svg">
  <metadata
     id="metadata5270">
    <rdf:RDF>
      <cc:Work
         rdf:about="">
        <dc:format>image/svg+xml</dc:format>
        <dc:type
           rdf:resource="http://purl.org/dc/dcmitype/StillImage" />
        <dc:title></dc:title>
      </cc:Work>
    </rdf:RDF>
  </metadata>
  <defs
     id="defs5268" />
  <sodipodi:namedview
     pagecolor="#ffffff"
     bordercolor="#666666"
     borderopacity="1"
     objecttolerance="10"
     gridtolerance="10"
     guidetolerance="10"
     inkscape:pageopacity="0"
     inkscape:pageshadow="2"
     inkscape:window-width="1366"
     inkscape:window-height="706"
     id="namedview5266"
     showgrid="false"
     inkscape:zoom="16.857143"
     inkscape:cx="5.5554281"
     inkscape:cy="14.138773"
     inkscape:window-x="-8"
     inkscape:window-y="-8"
     inkscape:window-maximized="1"
     inkscape:current-layer="svg5261" />
  <path
     style="opacity:1;fill:#000000;fill-opacity:1;fill-rule:nonzero;stroke:none;stroke-width:0.50800002;stroke-linejoin:miter;stroke-miterlimit:4;stroke-dasharray:none;stroke-opacity:1"
     d="M 3 0 C 1.338 0 0 1.338 0 3 L 0 17 C 0 18.662 1.338 20 3 20 L 17 20 C 18.662 20 20 18.662 20 17 L 20 3 C 20 1.338 18.662 0 17 0 L 3 0 z M 9.6972656 5.4375 C 10.372027 5.4455 10.564024 5.4866319 10.822266 5.5449219 C 11.613653 5.7365219 11.345703 6.4702781 11.345703 8.2363281 C 11.345703 8.8027881 11.238295 9.5933224 11.646484 9.8515625 C 11.821422 9.9681925 12.254024 9.8687948 13.320312 8.0527344 C 13.320312 8.0527344 13.821363 7.1876675 14.212891 6.1796875 C 14.279531 5.9964175 14.419922 5.9199219 14.419922 5.9199219 C 14.419922 5.9199219 14.55306 5.8460938 14.736328 5.8710938 L 17.136719 5.8535156 C 17.861463 5.7619156 17.976562 6.0957031 17.976562 6.0957031 C 18.101519 6.4372431 17.711502 7.2370519 16.728516 8.5449219 C 15.112421 10.694162 14.936669 10.493145 16.269531 11.734375 C 17.552411 12.925615 17.819676 13.501202 17.861328 13.576172 C 17.861328 13.576172 18.394133 14.509248 17.269531 14.517578 L 15.136719 14.550781 C 14.678547 14.642381 14.070312 14.226563 14.070312 14.226562 C 13.270596 13.676763 12.520626 12.252277 11.9375 12.435547 C 11.9375 12.435547 11.338808 12.627276 11.355469 13.910156 C 11.363769 14.185056 11.230469 14.333984 11.230469 14.333984 C 11.230469 14.333984 11.080627 14.492588 10.789062 14.517578 L 9.8300781 14.517578 C 7.7224904 14.650858 5.8652344 12.708984 5.8652344 12.708984 C 5.8652344 12.708984 3.8315309 10.610112 2.0488281 6.4199219 C 1.9322027 6.1450219 2.0585937 6.0117188 2.0585938 6.0117188 C 2.0585938 6.0117188 2.1833269 5.8535156 2.5332031 5.8535156 L 4.8164062 5.8378906 C 5.0329963 5.8711906 5.1816406 5.9863281 5.1816406 5.9863281 C 5.1816406 5.9863281 5.3161695 6.0789362 5.3828125 6.2539062 C 5.7576799 7.1869163 6.2402344 8.0371094 6.2402344 8.0371094 C 7.073273 9.7531698 7.6399586 10.044081 7.9648438 9.8691406 C 7.9648438 9.8691406 8.3885093 9.6113797 8.296875 7.5371094 C 8.263554 6.7873794 8.0566406 6.4453125 8.0566406 6.4453125 C 7.8650417 6.1870725 7.5059335 6.1128806 7.3476562 6.0878906 C 7.2227004 6.0711906 7.4321287 5.7699988 7.7070312 5.6367188 C 8.1152201 5.4367887 8.8392357 5.42917 9.6972656 5.4375 z "
     id="rect5812" />
  <g
     id="icomoon-ignore"
     transform="translate(0,-428)" />
</svg>
